<svg width="406" height="545" xmlns="http://www.w3.org/2000/svg" version="1.1">

 <g>
  <title>Layer 1</title>
  <path d="m405.24573,187.13876c-0.60547,-1.5469 -1.5039,-2.9414 -2.625,-4.1406c-0.04297,-0.04297 -0.05078,-0.10547 -0.09766,-0.14844c-0.01562,-0.01562 -0.04297,-0.02734 -0.07031,-0.04297c-1.1797,-1.2148 -2.5898,-2.2031 -4.1719,-2.8945c-0.01562,-0.00781 -0.03516,-0.01562 -0.0625,-0.02734c-1.4609,-0.62891 -3.0703,-0.97266 -4.7422,-1.0234c-0.07812,0 -0.14844,-0.01563 -0.21875,-0.01563c-0.07031,0 -0.14062,-0.01562 -0.20312,-0.01562c-1.5664,0 -3.0469,0.32422 -4.4375,0.82422c-0.12109,0.04297 -0.23438,0.0625 -0.35938,0.11328c-1.5469,0.60547 -2.9414,1.5039 -4.1484,2.625c-0.04297,0.04297 -0.10547,0.05078 -0.14844,0.09765l-13.152,12.617l13.098,-34.465c7.9102,-20.852 2.8594,-43.469 -11.094,-59.035c33.793,-24.133 35.664,-43.426 33.285,-53.418c-2.7383,-11.461 -12.723,-19.117 -26.066,-19.977c-11.348,-0.71875 -24.668,3.4219 -37.109,13.125c-2.8281,-15.496 -10.035,-27.441 -19.074,-34.477c-10.543,-8.207 -23.074,-9.1172 -32.762,-2.3711c-8.418,5.8906 -19.836,21.559 -10.586,62.062c-20.773,2.3711 -39.578,15.918 -47.512,36.766l-28.777,75.766c-2.0664,-0.19141 -4.1484,-0.04296 -6.0977,0.74219c-1.1211,-11.488 -2.8945,-23.152 -5.4258,-34.902c-18.531,-85.977 -68.164,-145.74 -113.11,-136.09c-32.656,7.043 -52.379,48.695 -53.609,103.95c-0.50781,2.793 -0.52344,5.6719 -0.0625,8.6016c0.21875,18.289 2.3438,37.836 6.7031,58.047l0,0.00782l0,0.00781c1.25,5.7852 2.668,11.473 4.207,17.07l-14.594,-14.016c-0.04297,-0.04297 -0.11328,-0.05078 -0.15625,-0.09766c-1.1914,-1.1094 -2.5742,-2.0039 -4.1211,-2.6172c-0.14062,-0.05078 -0.26953,-0.07812 -0.41016,-0.13281c-1.3828,-0.5 -2.8516,-0.8125 -4.4023,-0.8125c-0.0625,0 -0.11328,0.01563 -0.17578,0.01563c-0.10547,0 -0.20312,0.02734 -0.30469,0.02734c-1.6523,0.0625 -3.2383,0.39453 -4.6797,1.0078c-0.02734,0.00782 -0.04297,0.02735 -0.07031,0.04297c-1.5742,0.68359 -2.9844,1.6719 -4.1719,2.8867c-0.01563,0.01563 -0.04297,0.02735 -0.07031,0.04297c-0.04297,0.04297 -0.05079,0.11328 -0.09766,0.15625c-1.1094,1.1914 -2.0039,2.582 -2.6172,4.1211c-0.05078,0.14062 -0.07812,0.26953 -0.13281,0.41016c-0.5,1.3828 -0.8125,2.8516 -0.8125,4.4023l0,325.82c0,15.566 13.887,28.234 30.949,28.234l344.26,0c17.062,0 30.949,-12.66 30.949,-28.234l-0.00391,-325.83c0,-1.5586 -0.31641,-3.0273 -0.8125,-4.4102c-0.01562,-0.12891 -0.04297,-0.26172 -0.09765,-0.39453l0.00179,-0.00129zm-33.434,-131.89c4.6992,-1.3633 7.6562,-0.85937 8.7852,-0.44531c-0.28125,3.3516 -5.7656,14.902 -31.254,30.977l-7.2891,-2.7656c11.262,-20.801 25.227,-26.445 29.758,-27.766l-0.0001,-0.00009zm-66.016,-28.875c1.1094,0.4375 3.6484,2.0195 6.2656,6.168c2.5195,4 9.125,17.516 3.7812,40.496l-7.1328,-2.7109c-8.3242,-28.816 -4.9297,-41.27 -2.9141,-43.953l0.0001,-0.0001zm-48.23,86.238c6.1523,-16.203 24.359,-24.387 40.566,-18.227l21.465,8.1641c0.01562,0.00781 0.03516,0.01563 0.05078,0.02734c0.01563,0.00782 0.03516,0.00782 0.05078,0.00782l21.473,8.1641c16.203,6.1523 24.379,24.352 18.227,40.547l-22.664,59.613l-29.652,-28.438c-5.0742,-4.875 -13.098,-4.875 -18.172,0l-38.402,36.863l-24.535,-23.574l31.59244,-83.14736zm-172.44,-78.156c25.777,-5.4766 65.703,40.723 81.918,115.95c3.832,17.754 5.8086,35.203 6.1094,52.035l-17.598,16.895l-38.379,-36.863c-5.0742,-4.8828 -13.109,-4.875 -18.184,0l-29.871,28.691c-3.9375,-10.691 -7.2617,-21.918 -9.9414,-33.59c6.3008,-5.418 28.727,-16.285 66.02,-24.324c7.0859,-1.5312 11.594,-8.5156 10.062,-15.594c-1.5234,-7.0859 -8.5156,-11.578 -15.594,-10.062c-22.609,4.875 -43.547,11.551 -58.949,18.797c-1.6289,0.76172 -3.9531,1.8633 -6.5625,3.2656c-1.2773,-9.957 -2.0117,-19.555 -2.1523,-28.613c0.02734,-0.45313 0.03516,-0.91016 0.00781,-1.3633c-0.00781,-0.91797 0.02735,-1.8125 0.02735,-2.7305c1.4688,-4.332 14.672,-16.02 41.039,-21.707c7.0859,-1.5312 11.594,-8.5156 10.062,-15.602c-1.5312,-7.0859 -8.5234,-11.594 -15.602,-10.062c-11.402,2.457 -22.516,6.3789 -32.141,11.383c5.3398,-26.363 16.383,-43.629 29.727,-46.508l0.00164,0.0022zm290.11,485.29l-344.26,0c-2.8594,0 -4.5508,-1.4609 -4.6992,-1.9844l0,-295l25.254,24.254c5.0742,4.8828 13.109,4.875 18.184,0l38.379,-36.855l38.379,36.863c5.0742,4.8828 13.098,4.8828 18.184,0l30.73,-29.504c0.14844,-0.14063 0.29688,-0.28125 0.44531,-0.42969l7.2188,-6.9297l38.367,36.855c5.0742,4.875 13.098,4.8906 18.184,0l38.402,-36.871l38.457,36.871c2.5391,2.4336 5.8086,3.6484 9.082,3.6484c3.2734,0 6.5469,-1.2148 9.082,-3.6484l25.332,-24.289l0.00781,295c-0.1875,0.55469 -1.875,2.0234 -4.7305,2.0234l0.00178,-0.00361z" id="svg_14"/>
 </g>
</svg>