<?xml version="1.0" standalone="no"?>
<!DOCTYPE svg PUBLIC "-//W3C//DTD SVG 20010904//EN"
 "http://www.w3.org/TR/2001/REC-SVG-20010904/DTD/svg10.dtd">
<svg version="1.0" xmlns="http://www.w3.org/2000/svg"
 width="700.000000pt" height="700.000000pt" viewBox="0 0 700.000000 700.000000"
 preserveAspectRatio="xMidYMid meet">
<metadata>
Created by potrace 1.14, written by Peter Selinger 2001-2017
</metadata>
<g transform="translate(0.000000,700.000000) scale(0.100000,-0.100000)"
fill="#000000" stroke="none">
<path d="M290 6125 l0 -295 293 0 294 0 513 -1082 c282 -596 518 -1094 523
-1108 8 -22 -14 -67 -177 -363 -232 -421 -243 -443 -261 -519 -74 -314 132
-636 450 -703 60 -13 322 -15 1843 -15 l1772 0 0 290 0 290 -1684 0 c-1149 0
-1693 3 -1713 10 -34 12 -57 52 -47 84 3 11 65 128 137 259 l130 237 1121 0
c1232 0 1180 -2 1315 62 49 23 87 52 146 113 l80 81 545 990 545 989 3 81 c3
65 0 91 -16 127 -27 61 -84 121 -140 149 l-47 23 -2198 5 -2198 5 -132 280
c-73 154 -136 286 -140 293 -6 9 -114 12 -483 12 l-474 0 0 -295z"/>
<path d="M1925 1739 c-27 -6 -88 -28 -135 -51 -196 -94 -330 -306 -330 -523 0
-143 67 -302 170 -405 77 -77 129 -110 236 -146 103 -35 244 -37 344 -5 190
60 345 222 395 411 19 73 19 217 -1 294 -48 185 -203 351 -383 407 -77 24
-223 33 -296 18z"/>
<path d="M4833 1735 c-208 -45 -380 -212 -433 -420 -53 -208 3 -412 154 -560
115 -113 241 -167 396 -168 164 -2 300 53 416 169 146 145 205 347 159 543
-25 106 -72 188 -155 272 -147 149 -337 207 -537 164z"/>
</g>
</svg>
